HIERARCHY
ROOT Beta:Hips
{
	OFFSET 0.00 0.00 0.00
	CHANNELS 6 Xposition Yposition Zposition Yrotation Xrotation Zrotation
	JOINT Beta:Spine
	{
		OFFSET	0.0000	9.2263	1.5771
		CHANNELS 3 Xrotation Yrotation Zrotation
		JOINT Beta:Spine1
		{
			OFFSET	0.0000	16.2540	-0.1656
			CHANNELS 3 Xrotation Yrotation Zrotation
			JOINT Beta:Spine2
			{
				OFFSET	0.0000	13.6396	-1.2923
				CHANNELS 3 Xrotation Yrotation Zrotation
				JOINT Beta:Neck
				{
					OFFSET	0.0000	13.8774	-4.3542
					CHANNELS 3 Xrotation Yrotation Zrotation
					JOINT Beta:Neck1
					{
						OFFSET	0.0000	4.3400	0.9269
						CHANNELS 3 Xrotation Yrotation Zrotation
						JOINT Beta:Head
						{
							OFFSET	0.0000	4.0266	0.8585
							CHANNELS 3 Xrotation Yrotation Zrotation
							End Site
							{
								OFFSET 0.0000 23.0297 0.1231
							}
						}
					}
				}
				JOINT Beta:LeftShoulder
				{
					OFFSET	6.1442	10.1870	-3.7932
					CHANNELS 3 Zrotation Xrotation Yrotation
					JOINT Beta:LeftArm
					{
						OFFSET	12.3191	-1.1130	-1.7935
						CHANNELS 3 Zrotation Xrotation Yrotation
						JOINT Beta:LeftForeArm
						{
							OFFSET	27.6870	0.0000	0.0000
							CHANNELS 3 Xrotation Zrotation Yrotation
							JOINT Beta:LeftHand
							{
								OFFSET	27.8738	0.0000	0.0000
								CHANNELS 3 Zrotation Yrotation Xrotation
								JOINT Beta:LeftHandThumb1
								{
									OFFSET	2.3785	-1.0029	2.6209
									CHANNELS 3 Zrotation Xrotation Yrotation
									JOINT Beta:LeftHandThumb2
									{
										OFFSET	3.3624	-1.0029	2.8398
										CHANNELS 3 Zrotation Xrotation Yrotation
										JOINT Beta:LeftHandThumb3
										{
											OFFSET	4.5018	-1.3445	2.1783
											CHANNELS 3 Zrotation Xrotation Yrotation
											End Site
											{
												OFFSET 2.6000 -1.0000 1.0000
											}
										}
									}
								}
								JOINT Beta:LeftHandMiddle1
								{
									OFFSET	10.4639	0.6148	0.4298
									CHANNELS 3 Zrotation Xrotation Yrotation
									JOINT Beta:LeftHandMiddle2
									{
										OFFSET	5.7921	0.0000	0.0000
										CHANNELS 3 Zrotation Xrotation Yrotation
										JOINT Beta:LeftHandMiddle3
										{
											OFFSET	3.7132	0.0000	0.0000
											CHANNELS 3 Zrotation Xrotation Yrotation
											End Site
											{
												OFFSET 2.3000 0.0000 0.0000
											}
										}
									}
								}
								JOINT Beta:LeftHandIndex1
								{
									OFFSET	10.3945	0.6148	2.7055
									CHANNELS 3 Zrotation Xrotation Yrotation
									JOINT Beta:LeftHandIndex2
									{
										OFFSET	5.5493	0.0000	0.0000
										CHANNELS 3 Zrotation Xrotation Yrotation
										JOINT Beta:LeftHandIndex3
										{
											OFFSET	3.3911	0.0000	0.0000
											CHANNELS 3 Zrotation Xrotation Yrotation
											End Site
											{
												OFFSET 2.5000 0.0000 0.0000
											}
										}
									}
								}
								JOINT Beta:LeftHandRing1
								{
									OFFSET	10.3252	0.3211	-1.8755
									CHANNELS 3 Zrotation Xrotation Yrotation
									JOINT Beta:LeftHandRing2
									{
										OFFSET	5.4452	0.0000	0.0000
										CHANNELS 3 Zrotation Xrotation Yrotation
										JOINT Beta:LeftHandRing3
										{
											OFFSET	3.7132	0.0000	0.0000
											CHANNELS 3 Zrotation Xrotation Yrotation
											End Site
											{
												OFFSET 2.0000 0.0000 0.0000
											}
										}
									}
								}
								JOINT Beta:LeftHandPinky1
								{
									OFFSET	10.0130	-0.0783	-3.9671
									CHANNELS 3 Zrotation Xrotation Yrotation
									JOINT Beta:LeftHandPinky2
									{
										OFFSET	3.6763	0.0000	0.0000
										CHANNELS 3 Zrotation Xrotation Yrotation
										JOINT Beta:LeftHandPinky3
										{
											OFFSET	2.8113	0.0000	0.0000
											CHANNELS 3 Zrotation Xrotation Yrotation
											End Site
											{
												OFFSET 2.9000 0.0000 0.0000
											}
										}
									}
								}
							}
						}
					}
				}
				JOINT Beta:RightShoulder
				{
					OFFSET	-6.1402	10.1870	-3.7932
					CHANNELS 3 Zrotation Xrotation Yrotation
					JOINT Beta:RightArm
					{
						OFFSET	-12.3231	-1.1130	-1.7935
						CHANNELS 3 Zrotation Xrotation Yrotation
						JOINT Beta:RightForeArm
						{
							OFFSET	-27.6870	0.0000	0.0000
							CHANNELS 3 Xrotation Zrotation Yrotation
							JOINT Beta:RightHand
							{
								OFFSET	-27.8738	0.0000	0.0000
								CHANNELS 3 Zrotation Yrotation Xrotation
								JOINT Beta:RightHandThumb1
								{
									OFFSET	-2.5178	-0.9367	2.5137
									CHANNELS 3 Zrotation Xrotation Yrotation
									JOINT Beta:RightHandThumb2
									{
										OFFSET	-3.2638	-1.0870	2.9669
										CHANNELS 3 Zrotation Xrotation Yrotation
										JOINT Beta:RightHandThumb3
										{
											OFFSET	-4.4165	-1.3703	2.1350
											CHANNELS 3 Zrotation Xrotation Yrotation
											End Site
											{
												OFFSET -2.6000 -1.0000 1.0000
											}
										}
									}
								}
								JOINT Beta:RightHandIndex1
								{
									OFFSET	-10.4665	0.4896	2.7120
									CHANNELS 3 Zrotation Xrotation Yrotation
									JOINT Beta:RightHandIndex2
									{
										OFFSET	-5.3768	0.0000	0.0000
										CHANNELS 3 Zrotation Xrotation Yrotation
										JOINT Beta:RightHandIndex3
										{
											OFFSET	-3.3855	0.0000	0.0000
											CHANNELS 3 Zrotation Xrotation Yrotation
											End Site
											{
												OFFSET -2.6000 0.0000 0.0000
											}
										}
									}
								}
								JOINT Beta:RightHandMiddle1
								{
									OFFSET	-10.7596	0.4896	0.4278
									CHANNELS 3 Zrotation Xrotation Yrotation
									JOINT Beta:RightHandMiddle2
									{
										OFFSET	-5.6168	0.0000	0.0000
										CHANNELS 3 Zrotation Xrotation Yrotation
										JOINT Beta:RightHandMiddle3
										{
											OFFSET	-3.7364	0.0000	0.0000
											CHANNELS 3 Zrotation Xrotation Yrotation
											End Site
											{
												OFFSET -2.3000 0.0000 0.0000
											}
										}
									}
								}
								JOINT Beta:RightHandRing1
								{
									OFFSET	-10.4702	0.3879	-1.9363
									CHANNELS 3 Zrotation Xrotation Yrotation
									JOINT Beta:RightHandRing2
									{
										OFFSET	-5.4013	0.0000	0.0000
										CHANNELS 3 Zrotation Xrotation Yrotation
										JOINT Beta:RightHandRing3
										{
											OFFSET	-3.3916	0.0000	0.0000
											CHANNELS 3 Zrotation Xrotation Yrotation
											End Site
											{
												OFFSET -2.2000 0.0000 0.0000
											}
										}
									}
								}
								JOINT Beta:RightHandPinky1
								{
									OFFSET	-9.9715	-0.1191	-3.9540
									CHANNELS 3 Zrotation Xrotation Yrotation
									JOINT Beta:RightHandPinky2
									{
										OFFSET	-3.6528	0.0000	0.0000
										CHANNELS 3 Zrotation Xrotation Yrotation
										JOINT Beta:RightHandPinky3
										{
											OFFSET	-2.7820	0.0000	0.0000
											CHANNELS 3 Zrotation Xrotation Yrotation
											End Site
											{
												OFFSET -2.9000 0.0000 0.0000
											}
										}
									}
								}
							}
						}
					}
				}
			}
		}
	}
	JOINT Beta:LeftUpLeg
	{
		OFFSET	9.6338	-3.2733	0.0000
		CHANNELS 3 Xrotation Yrotation Zrotation
		JOINT Beta:LeftLeg
		{
			OFFSET	0.0000	-41.7300	-1.7300
			CHANNELS 3 Xrotation Yrotation Zrotation
			JOINT Beta:LeftFoot
			{
				OFFSET	0.0126	-39.1900	-0.8477
				CHANNELS 3 Xrotation Yrotation Zrotation
				JOINT Beta:LeftToeBase
				{
					OFFSET	-0.1833	-12.1931	8.2823
					CHANNELS 3 Xrotation Yrotation Zrotation
					End Site
					{
						OFFSET 0.0000 0.0000 10.1681
					}
				}
			}
		}
	}
	JOINT Beta:RightUpLeg
	{
		OFFSET	-9.6338	-3.2733	0.0000
		CHANNELS 3 Xrotation Yrotation Zrotation
		JOINT Beta:RightLeg
		{
			OFFSET	0.0000	-41.7300	-1.7300
			CHANNELS 3 Xrotation Yrotation Zrotation
			JOINT Beta:RightFoot
			{
				OFFSET	0.0126	-39.1900	-0.8477
				CHANNELS 3 Xrotation Yrotation Zrotation
				JOINT Beta:RightToeBase
				{
					OFFSET	-0.1833	-12.1931	8.2823
					CHANNELS 3 Xrotation Yrotation Zrotation
					End Site
					{
						OFFSET 0.0032 0.0000 10.1681
					}
				}
			}
		}
	}
}
MOTION
Frames: 7
Frame Time: 0.0333333
79.5927 81.4713 48.4715 -98.5009 -10.0406 5.1637 13.3464 -7.9288 -24.9009 1.9364 -0.8680 0.0342 1.9754 -0.7748 0.0335 -3.0238 2.1887 -0.5531 -0.0000 0.0000 -0.0000 2.3668 8.2370 10.2593 -21.3333 2.2000 -4.4202 -16.2218 17.0955 -56.5244 -0.0000 -0.0001 -75.1002 14.9098 9.2732 34.9864 -5.0224 3.9794 6.9013 -0.9411 -2.0364 -8.5533 1.3631 -1.6104 -3.9446 -19.5027 -0.0007 2.4994 -1.6299 -0.0000 -0.0000 -8.0881 0.0000 -0.0000 -19.4262 -0.0020 -4.8928 -0.0000 0.0000 -0.0000 -8.4535 -0.0000 0.0000 -21.0625 -0.0006 10.3443 -2.0931 -0.0000 -0.0000 -8.2544 -0.0000 0.0000 -24.4175 -0.0005 20.5645 -0.3526 0.0000 -0.0000 -7.4261 -0.0000 -0.0000 -1.9670 0.0185 -3.2289 63.8217 -55.3155 34.1544 -0.0000 0.0000 104.6160 -21.6867 6.8290 40.9576 -5.6870 4.4868 -11.3316 1.0201 -1.7459 9.4182 -2.0595 -2.4743 5.9639 -3.6083 0.0021 10.2489 0.0475 -0.0000 0.0000 -3.0713 -0.0000 0.0000 -3.3198 0.0011 1.3365 2.3367 0.0000 -0.0000 2.8748 -2.9549 -0.0002 1.2216 0.0005 -7.4020 8.4591 -0.0000 -0.0000 10.4050 -3.7972 -0.0003 9.3242 0.0000 -17.7142 31.9204 -0.0000 0.0000 17.1393 -0.0000 -0.0000 4.6917 -12.3583 5.8480 50.9376 -1.3874 -3.3958 -44.8179 10.7147 -8.7633 -1.2921 -0.0000 -0.0000 -30.0130 12.7027 -10.8042 14.4169 -10.2334 -8.9798 -14.9304 -24.0837 -0.1801 7.2958 -0.0000 -0.0000 
80.0060 80.3836 50.4997 -101.7825 -10.8964 7.6144 15.4873 -4.6463 -24.9183 2.8021 -0.3858 -1.6650 2.8119 -0.3055 -1.6695 -4.2524 1.8218 -1.1569 -0.0000 0.0000 -0.0000 0.8835 5.4356 11.4395 -23.6383 1.9099 -2.8774 -18.5602 14.2427 -54.9041 0.0000 0.0000 -81.1337 16.7130 7.8385 36.5060 -4.0175 3.6926 7.3840 -0.9411 -2.0364 -8.5533 1.5266 -1.8195 -4.4385 -15.7756 -0.0010 2.9061 -0.6760 -0.0000 0.0000 -7.8402 0.0000 0.0000 -14.9073 -0.0021 -4.0739 -0.0000 0.0000 0.0000 -8.4772 0.0000 -0.0000 -17.2658 -0.0007 10.6554 -1.0794 -0.0000 -0.0000 -8.0936 0.0000 -0.0000 -19.6762 -0.0005 20.7536 -0.1742 -0.0000 0.0000 -7.2514 -0.0000 -0.0000 0.3578 0.0626 -2.7890 65.3135 -56.0038 27.5734 -0.0000 -0.0000 116.1715 -25.0505 8.8903 41.2069 -6.2156 4.7742 -12.1510 1.0168 -1.7456 9.4187 -2.0022 -2.3831 5.7539 -7.5638 0.0013 11.0243 0.0000 0.0000 -0.0000 -3.6507 -0.0000 0.0000 -6.9705 0.0007 1.7737 0.2746 0.0000 0.0000 1.2666 -2.5439 -0.0006 -2.5802 0.0003 -7.2059 4.7579 -0.0000 0.0000 7.7083 -3.3892 -0.0011 4.0483 0.0000 -17.7102 25.5810 0.0000 0.0000 13.8240 -0.0000 -0.0000 4.1810 -12.6876 3.9232 53.9499 -0.2381 -9.3158 -46.7533 9.0515 -6.3957 -1.2960 0.0000 0.0000 -31.5397 11.1061 -12.5428 13.8114 -10.3128 -8.6954 -11.9675 -20.6788 -2.3834 7.7696 -0.0000 0.0000 
80.0109 80.2544 51.9768 -104.9430 -11.7746 7.5641 18.2970 -2.2555 -21.1569 2.6297 0.0801 -3.5899 2.6308 0.0609 -3.5894 -4.0601 1.9308 -1.7381 -0.0000 0.0000 -0.0000 -1.4796 5.0336 10.8584 -23.3448 1.7432 -2.3760 -22.4906 10.0774 -54.2549 0.0000 -0.0000 -85.6408 17.1532 6.9615 38.0672 -3.3463 3.5112 7.7385 -0.9411 -2.0364 -8.5533 1.6927 -2.0319 -4.9410 -12.1389 -0.0012 3.5187 0.0000 -0.0000 0.0000 -7.6523 -0.0000 0.0000 -10.8773 -0.0022 -3.0535 -0.0000 0.0000 0.0000 -8.5003 -0.0000 -0.0000 -13.1765 -0.0008 11.0182 -0.1392 0.0000 -0.0000 -7.9786 0.0000 -0.0000 -14.1974 -0.0006 20.9450 -0.0261 0.0000 0.0000 -7.1523 -0.0000 0.0000 0.0699 0.1558 -1.6726 56.9017 -57.1699 20.0170 0.0000 -0.0000 114.4199 -25.6590 8.7408 40.7490 -6.4068 4.9846 -12.6129 1.0131 -1.7453 9.4192 -1.9896 -2.3605 5.7031 -10.5355 0.0008 11.6909 0.0000 0.0000 -0.0000 -4.0880 -0.0000 -0.0000 -9.5543 0.0004 2.1497 0.0000 -0.0000 -0.0000 -0.7436 -1.8292 -0.0009 -5.1119 0.0001 -7.0367 0.8579 0.0000 -0.0000 3.8801 -2.5837 -0.0021 0.6740 0.0000 -17.7056 18.8148 0.0000 0.0000 8.5027 0.0000 0.0000 5.5654 -7.1979 5.1080 54.0157 -3.0279 -10.2531 -47.4135 8.0731 -4.1805 -1.2887 0.0000 -0.0000 -31.4880 5.8604 -13.6972 11.1987 -10.1863 -5.7982 -12.1637 -14.4673 -1.7681 8.5575 -0.0000 0.0000 
79.7016 81.1510 52.5376 -105.4780 -11.6702 6.9378 18.9925 -2.8401 -19.2529 2.0108 0.0577 -3.4421 2.0107 0.0076 -3.4417 -3.1001 2.4905 -2.3918 -0.0000 0.0000 -0.0000 -2.3496 6.9376 9.6946 -21.7501 1.5632 -2.0523 -28.7182 4.5835 -54.3599 0.0000 -0.0001 -88.5606 16.7542 7.2932 39.2632 -2.9894 3.4215 7.9522 -0.9411 -2.0364 -8.5532 1.8131 -2.1852 -5.3047 -8.9774 -0.0006 4.0377 -0.0000 -0.0000 0.0000 -7.5851 -0.0000 -0.0000 -7.5699 -0.0011 -2.1920 -0.0000 -0.0000 -0.0000 -8.5543 0.0000 0.0000 -9.4221 -0.0004 11.3109 -0.0000 -0.0000 0.0000 -7.9213 0.0000 0.0000 -8.9929 -0.0002 21.0825 -0.0000 0.0000 0.0000 -7.1303 0.0000 -0.0000 -3.4407 0.1393 -0.9386 46.2722 -55.9712 17.7052 -0.0000 -0.0000 100.8752 -23.4624 6.7235 39.5982 -6.1540 5.1595 -12.6890 1.0119 -1.7451 9.4193 -1.9939 -2.3700 5.7258 -11.9155 0.0001 12.2171 0.0000 0.0000 0.0000 -3.9407 0.0000 -0.0000 -10.4650 -0.0000 2.4461 0.0000 0.0000 -0.0000 -2.2072 -1.0098 -0.0004 -5.6977 -0.0000 -6.9043 0.0000 -0.0000 -0.0000 0.4549 -1.6116 -0.0015 0.1789 0.0000 -17.7042 13.7436 0.0000 -0.0000 3.2668 -0.0000 0.0000 6.8294 -4.2948 6.3942 51.3576 -3.6343 -10.2138 -45.9716 6.8074 -3.8946 -1.6798 -0.0000 -0.0000 -30.3753 2.9670 -15.2924 9.2646 -9.9624 -2.9312 -12.3424 -12.6904 1.7732 9.3031 0.0000 0.0000 
79.2319 83.2462 52.0302 -102.5129 -11.0399 5.6589 18.9849 -6.0515 -18.1667 1.3198 -0.3835 -2.3759 1.3205 -0.4230 -2.3682 -2.2900 2.9961 -2.5738 -0.0000 0.0000 -0.0000 -2.2431 9.2103 9.3910 -18.4189 1.1533 -1.1067 -33.9507 -0.3199 -57.2463 0.0000 0.0002 -87.6192 16.5335 8.7378 39.2971 -3.0092 3.4437 8.0086 -0.9411 -2.0364 -8.5531 1.8655 -2.2505 -5.4620 -6.4733 -0.0003 4.3722 0.0000 -0.0000 0.0000 -7.5961 0.0000 -0.0000 -5.1991 -0.0004 -1.6174 -0.0000 -0.0000 0.0000 -8.6523 0.0000 -0.0000 -6.1958 -0.0002 11.4801 0.0000 -0.0000 0.0000 -7.9355 0.0000 -0.0000 -4.3109 -0.0000 21.1280 0.0001 0.0000 -0.0000 -7.2002 0.0000 -0.0000 -7.4457 0.0648 -0.1502 34.7537 -52.9257 16.5542 0.0000 0.0000 81.9963 -19.4664 4.8199 36.8212 -5.3673 5.3010 -12.3124 1.0132 -1.7460 9.4189 -2.0115 -2.4088 5.8156 -11.2971 -0.0002 12.5809 0.0000 -0.0000 -0.0000 -3.0197 -0.0000 0.0000 -9.3074 -0.0002 2.6499 0.0000 0.0000 0.0000 -2.7803 -0.2225 -0.0001 -3.9059 -0.0001 -6.8151 0.0000 -0.0000 0.0000 -1.9941 -0.6318 -0.0011 3.1791 0.0000 -17.7072 11.7996 -0.0000 -0.0000 -1.1120 0.0000 0.0000 8.0287 -3.5003 7.0660 45.6244 -4.0209 -6.8727 -42.1992 7.0478 -5.0578 -2.3625 0.0000 0.0000 -28.8901 3.0052 -17.1975 11.2340 -9.7652 0.2691 -9.3489 -16.7744 2.6542 9.6925 0.0000 0.0000 
78.5463 86.0788 50.7536 -98.6579 -10.2258 3.4315 19.5966 -8.3727 -15.0014 0.6820 -0.6943 -2.2526 0.6809 -0.7577 -2.2319 -1.5754 3.0762 -2.0947 -0.0000 0.0000 -0.0000 -1.9494 10.1379 9.9956 -12.7186 0.7087 -0.0785 -34.5576 -3.8375 -61.5809 0.0000 -0.0000 -82.4321 17.2861 10.4174 37.6265 -3.0729 3.4507 7.9331 -0.9411 -2.0364 -8.5531 1.8540 -2.2331 -5.4243 -4.8049 0.0001 4.4370 0.0000 0.0000 0.0000 -7.6689 -0.0000 -0.0000 -3.4385 0.0002 -1.4999 -0.0000 0.0000 0.0000 -8.7816 -0.0000 0.0000 -4.2298 0.0000 11.5067 -0.0000 -0.0000 -0.0000 -7.9840 0.0000 0.0000 -1.5983 0.0000 21.1230 0.0001 -0.0000 0.0000 -7.2939 -0.0000 -0.0000 -10.7381 -0.0405 0.7883 19.4373 -45.0331 10.3522 0.0000 0.0000 63.1409 -15.0745 4.8743 31.6632 -4.2652 5.4924 -11.7570 1.0122 -1.7517 9.4175 -1.9977 -2.4084 5.8134 -9.1992 -0.0002 12.8072 0.4304 -0.0000 0.0000 -1.3286 0.0000 -0.0000 -6.5776 -0.0002 2.7751 0.0000 -0.0000 0.0000 -2.2880 0.5472 0.0005 -0.2705 -0.0001 -6.7634 0.0000 -0.0000 0.0000 -3.1677 0.3141 -0.0001 8.9187 0.0000 -17.7159 13.4808 -0.0000 -0.0000 -4.0797 -0.0000 -0.0000 7.4734 -0.4699 8.9280 40.9643 -6.7556 -0.7859 -32.1633 6.6870 -8.2916 -6.8771 -0.0000 0.0000 -26.4136 3.2116 -17.6588 15.3527 -9.4335 3.9290 -4.0907 -18.4930 3.4163 9.6047 -0.0000 0.0000 
77.5697 89.1472 48.9152 -95.1686 -9.0366 0.6096 20.1205 -9.0286 -10.8801 0.0321 -0.8169 -2.2111 0.0256 -0.8997 -2.1787 -0.6086 2.9359 -1.5129 -0.0000 0.0000 -0.0000 -0.7480 10.1958 10.2140 -7.0473 0.4966 0.1221 -30.9229 -6.7957 -64.2451 0.0000 0.0001 -74.6009 18.9725 11.3199 34.4756 -3.0822 3.4024 7.7230 -0.9411 -2.0364 -8.5531 1.7722 -2.1246 -5.1717 -4.1264 0.0001 4.1653 -0.0001 -0.0000 -0.0000 -7.8165 0.0000 -0.0000 -2.2397 0.0004 -1.9606 -0.0000 0.0000 -0.0000 -8.9459 -0.0000 0.0000 -3.9208 -0.0000 11.3631 -0.0000 -0.0000 0.0000 -8.0613 -0.0000 0.0000 -1.5817 -0.0000 21.0725 -0.0000 -0.0000 0.0000 -7.3954 0.0000 -0.0000 -13.7231 -0.2010 2.1556 7.6170 -32.3780 6.6849 0.0000 -0.0000 43.8188 -11.3413 7.1082 24.6752 -2.8784 5.7709 -11.0932 1.0131 -1.7603 9.4151 -1.9319 -2.3392 5.6502 -5.6807 -0.0001 12.8935 4.2392 -0.0000 -0.0000 1.2461 0.0000 0.0000 -2.3023 -0.0000 2.8197 0.5413 -0.0000 0.0000 -0.5075 1.2828 0.0009 5.2085 -0.0000 -6.7507 0.0000 0.0000 -0.0000 -2.7455 1.1888 0.0005 17.4220 0.0001 -17.7317 16.3364 -0.0000 -0.0000 -5.1781 0.0000 -0.0000 4.6558 2.7005 12.7632 38.6602 -8.4463 3.4996 -18.3307 3.7131 -13.2590 -12.7246 -0.0104 0.4853 -26.1481 3.1562 -15.8696 25.7909 -9.6727 6.3099 -1.4082 -11.4314 10.8455 8.7736 -0.0000 -0.0000 
